<svg width="218" height="45" viewBox="0 0 218 45" fill="none" xmlns="http://www.w3.org/2000/svg">
<path d="M0 1.20805C0 0.540864 0.54795 0 1.22388 0H39.7761C40.4521 0 41 0.540864 41 1.20805V43.7919C41 44.4591 40.4521 45 39.7761 45H1.22388C0.547949 45 0 44.4591 0 43.7919V1.20805Z" fill="#31B5E0"/>
<path d="M57.7701 24.4498V39.6602H62.0033V24.4498H67.7734V21H52V24.4498H57.7701Z" fill="#31B5E0"/>
<path d="M65.886 30.304C65.9399 29.4328 66.1646 28.7098 66.5601 28.1348C66.9555 27.5598 67.4588 27.0981 68.07 26.7497C68.6812 26.4012 69.3642 26.1573 70.1192 26.0179C70.8921 25.8611 71.6651 25.7827 72.438 25.7827C73.1391 25.7827 73.8491 25.8349 74.5681 25.9395C75.2871 26.0266 75.9432 26.2095 76.5364 26.4883C77.1296 26.7671 77.6149 27.1591 77.9924 27.6644C78.3699 28.1522 78.5587 28.8056 78.5587 29.6245V36.6547C78.5587 37.2646 78.5946 37.8482 78.6665 38.4058C78.7384 38.9633 78.8642 39.3815 79.044 39.6602H75.1613C75.0894 39.4512 75.0265 39.2421 74.9726 39.033C74.9366 38.8065 74.9096 38.58 74.8917 38.3535C74.2805 38.9633 73.5615 39.3902 72.7346 39.6341C71.9078 39.878 71.0629 40 70.2001 40C69.535 40 68.9149 39.9216 68.3396 39.7648C67.7644 39.608 67.2611 39.3641 66.8297 39.033C66.3983 38.702 66.0568 38.2838 65.8051 37.7785C65.5714 37.2733 65.4546 36.6722 65.4546 35.9752C65.4546 35.2086 65.5894 34.5814 65.859 34.0935C66.1466 33.5883 66.5061 33.1875 66.9376 32.8913C67.3869 32.5951 67.8903 32.3774 68.4475 32.238C69.0227 32.0812 69.5979 31.9592 70.1731 31.8721C70.7483 31.785 71.3146 31.7153 71.8718 31.663C72.429 31.6107 72.9234 31.5323 73.3548 31.4278C73.7862 31.3232 74.1277 31.1751 74.3794 30.9835C74.631 30.7744 74.7479 30.4782 74.7299 30.0949C74.7299 29.6942 74.658 29.3806 74.5142 29.1541C74.3884 28.9101 74.2086 28.7272 73.9749 28.6052C73.7592 28.4658 73.4986 28.3787 73.193 28.3439C72.9054 28.2916 72.5908 28.2655 72.2493 28.2655C71.4943 28.2655 70.9011 28.4223 70.4697 28.7359C70.0383 29.0495 69.7867 29.5722 69.7148 30.304H65.886ZM74.7299 33.0481C74.5681 33.1875 74.3614 33.3008 74.1097 33.3879C73.8761 33.4576 73.6154 33.5186 73.3278 33.5708C73.0582 33.6231 72.7706 33.6667 72.465 33.7015C72.1594 33.7364 71.8538 33.7799 71.5482 33.8322C71.2606 33.8845 70.973 33.9542 70.6854 34.0413C70.4158 34.1284 70.1731 34.2503 69.9574 34.4072C69.7597 34.5465 69.5979 34.7295 69.4721 34.956C69.3463 35.1825 69.2833 35.47 69.2833 35.8184C69.2833 36.1495 69.3463 36.4282 69.4721 36.6547C69.5979 36.8812 69.7687 37.0642 69.9844 37.2036C70.2001 37.3255 70.4517 37.4127 70.7394 37.4649C71.027 37.5172 71.3236 37.5433 71.6291 37.5433C72.3841 37.5433 72.9683 37.4214 73.3817 37.1774C73.7952 36.9335 74.1008 36.646 74.2985 36.315C74.4962 35.9665 74.6131 35.6181 74.649 35.2696C74.7029 34.9211 74.7299 34.6424 74.7299 34.4333V33.0481Z" fill="#31B5E0"/>
<path d="M84.9278 24.0578V21H81.0991V24.0578H84.9278ZM81.0991 26.1486V39.6602H84.9278V26.1486H81.0991Z" fill="#31B5E0"/>
<path d="M87.5112 21V39.6602H91.34V21H87.5112Z" fill="#31B5E0"/>
<path d="M97.2129 32.9175C97.2129 32.3774 97.2668 31.8459 97.3747 31.3232C97.4825 30.8006 97.6623 30.3388 97.9139 29.9381C98.1836 29.5374 98.5341 29.215 98.9655 28.9711C99.3969 28.7098 99.9362 28.5791 100.583 28.5791C101.23 28.5791 101.77 28.7098 102.201 28.9711C102.65 29.215 103.001 29.5374 103.253 29.9381C103.522 30.3388 103.711 30.8006 103.819 31.3232C103.927 31.8459 103.981 32.3774 103.981 32.9175C103.981 33.4576 103.927 33.989 103.819 34.5117C103.711 35.017 103.522 35.4787 103.253 35.8968C103.001 36.2976 102.65 36.6199 102.201 36.8638C101.77 37.1078 101.23 37.2297 100.583 37.2297C99.9362 37.2297 99.3969 37.1078 98.9655 36.8638C98.5341 36.6199 98.1836 36.2976 97.9139 35.8968C97.6623 35.4787 97.4825 35.017 97.3747 34.5117C97.2668 33.989 97.2129 33.4576 97.2129 32.9175ZM93.3841 32.9175C93.3841 33.9977 93.5549 34.9734 93.8964 35.8446C94.238 36.7157 94.7233 37.4649 95.3525 38.0922C95.9816 38.702 96.7366 39.1724 97.6174 39.5034C98.4981 39.8345 99.4868 40 100.583 40C101.68 40 102.668 39.8345 103.549 39.5034C104.448 39.1724 105.212 38.702 105.841 38.0922C106.47 37.4649 106.956 36.7157 107.297 35.8446C107.639 34.9734 107.809 33.9977 107.809 32.9175C107.809 31.8372 107.639 30.8615 107.297 29.9904C106.956 29.1018 106.47 28.3526 105.841 27.7428C105.212 27.1155 104.448 26.6364 103.549 26.3054C102.668 25.9569 101.68 25.7827 100.583 25.7827C99.4868 25.7827 98.4981 25.9569 97.6174 26.3054C96.7366 26.6364 95.9816 27.1155 95.3525 27.7428C94.7233 28.3526 94.238 29.1018 93.8964 29.9904C93.5549 30.8615 93.3841 31.8372 93.3841 32.9175Z" fill="#31B5E0"/>
<path d="M109.76 26.1486V39.6602H113.588V33.5708C113.588 32.961 113.651 32.3948 113.777 31.8721C113.903 31.3494 114.11 30.8964 114.397 30.5131C114.703 30.1123 115.098 29.7987 115.584 29.5722C116.069 29.3457 116.662 29.2325 117.363 29.2325C117.597 29.2325 117.84 29.2499 118.091 29.2847C118.343 29.3022 118.559 29.3283 118.738 29.3631V25.9133C118.433 25.8262 118.154 25.7827 117.902 25.7827C117.417 25.7827 116.95 25.8524 116.5 25.9917C116.051 26.1311 115.629 26.3315 115.233 26.5928C114.838 26.8368 114.487 27.1417 114.182 27.5076C113.876 27.856 113.633 28.2393 113.454 28.6575H113.4V26.1486H109.76Z" fill="#31B5E0"/>
<path d="M128.609 31.4539H122.381C122.399 31.1926 122.453 30.8964 122.543 30.5653C122.65 30.2343 122.821 29.9207 123.055 29.6245C123.307 29.3283 123.63 29.0844 124.026 28.8927C124.439 28.6836 124.951 28.5791 125.562 28.5791C126.497 28.5791 127.189 28.823 127.639 29.3109C128.106 29.7987 128.43 30.5131 128.609 31.4539ZM122.381 33.8061H132.438C132.51 32.7607 132.42 31.7588 132.168 30.8006C131.917 29.8423 131.503 28.9885 130.928 28.2393C130.371 27.4901 129.652 26.8978 128.771 26.4622C127.89 26.0092 126.857 25.7827 125.67 25.7827C124.61 25.7827 123.639 25.9656 122.758 26.3315C121.896 26.6974 121.15 27.2027 120.52 27.8473C119.891 28.4746 119.406 29.2238 119.064 30.0949C118.723 30.9661 118.552 31.9069 118.552 32.9175C118.552 33.9629 118.714 34.9211 119.037 35.7923C119.379 36.6635 119.855 37.4127 120.466 38.0399C121.078 38.6671 121.824 39.155 122.704 39.5034C123.585 39.8345 124.574 40 125.67 40C127.252 40 128.6 39.6515 129.715 38.9546C130.829 38.2577 131.656 37.099 132.195 35.4787H128.825C128.699 35.8968 128.358 36.2976 127.8 36.6809C127.243 37.0468 126.578 37.2297 125.805 37.2297C124.727 37.2297 123.9 36.9597 123.325 36.4195C122.749 35.8794 122.435 35.0083 122.381 33.8061Z" fill="#31B5E0"/>
<path d="M144.065 32.8652C144.065 33.4227 144.011 33.9629 143.903 34.4856C143.795 35.0083 143.616 35.4787 143.364 35.8968C143.112 36.2976 142.771 36.6199 142.339 36.8638C141.926 37.1078 141.405 37.2297 140.776 37.2297C140.182 37.2297 139.67 37.1078 139.239 36.8638C138.825 36.6025 138.475 36.2714 138.187 35.8707C137.917 35.4525 137.72 34.9821 137.594 34.4594C137.468 33.9367 137.405 33.414 137.405 32.8913C137.405 32.3338 137.459 31.8024 137.567 31.2971C137.693 30.7744 137.882 30.3127 138.133 29.912C138.403 29.5112 138.753 29.1889 139.185 28.945C139.616 28.7011 140.146 28.5791 140.776 28.5791C141.405 28.5791 141.926 28.7011 142.339 28.945C142.753 29.1889 143.085 29.5112 143.337 29.912C143.607 30.2953 143.795 30.7483 143.903 31.271C144.011 31.7763 144.065 32.3077 144.065 32.8652ZM144.119 37.9354V39.6602H147.759V21H143.93V27.795H143.876C143.445 27.133 142.852 26.6364 142.097 26.3054C141.36 25.9569 140.578 25.7827 139.751 25.7827C138.726 25.7827 137.828 25.983 137.055 26.3838C136.282 26.7671 135.635 27.2811 135.113 27.9257C134.61 28.5704 134.224 29.3196 133.954 30.1733C133.702 31.0096 133.576 31.8808 133.576 32.7868C133.576 33.7276 133.702 34.6337 133.954 35.5048C134.224 36.376 134.61 37.1513 135.113 37.8308C135.635 38.4929 136.291 39.0243 137.082 39.425C137.873 39.8083 138.789 40 139.832 40C140.749 40 141.566 39.8432 142.286 39.5296C143.022 39.1985 143.616 38.6671 144.065 37.9354H144.119Z" fill="#31B5E0"/>
<path d="M157.483 21V39.6602H161.716V31.9505H169.778V28.762H161.716V24.4498H171.019V21H157.483Z" fill="#31B5E0"/>
<path d="M175.92 32.9175C175.92 32.3774 175.974 31.8459 176.082 31.3232C176.189 30.8006 176.369 30.3388 176.621 29.9381C176.891 29.5374 177.241 29.215 177.672 28.9711C178.104 28.7098 178.643 28.5791 179.29 28.5791C179.937 28.5791 180.477 28.7098 180.908 28.9711C181.357 29.215 181.708 29.5374 181.96 29.9381C182.229 30.3388 182.418 30.8006 182.526 31.3232C182.634 31.8459 182.688 32.3774 182.688 32.9175C182.688 33.4576 182.634 33.989 182.526 34.5117C182.418 35.017 182.229 35.4787 181.96 35.8968C181.708 36.2976 181.357 36.6199 180.908 36.8638C180.477 37.1078 179.937 37.2297 179.29 37.2297C178.643 37.2297 178.104 37.1078 177.672 36.8638C177.241 36.6199 176.891 36.2976 176.621 35.8968C176.369 35.4787 176.189 35.017 176.082 34.5117C175.974 33.989 175.92 33.4576 175.92 32.9175ZM172.091 32.9175C172.091 33.9977 172.262 34.9734 172.603 35.8446C172.945 36.7157 173.43 37.4649 174.059 38.0922C174.689 38.702 175.444 39.1724 176.324 39.5034C177.205 39.8345 178.194 40 179.29 40C180.387 40 181.375 39.8345 182.256 39.5034C183.155 39.1724 183.919 38.702 184.548 38.0922C185.177 37.4649 185.663 36.7157 186.004 35.8446C186.346 34.9734 186.516 33.9977 186.516 32.9175C186.516 31.8372 186.346 30.8615 186.004 29.9904C185.663 29.1018 185.177 28.3526 184.548 27.7428C183.919 27.1155 183.155 26.6364 182.256 26.3054C181.375 25.9569 180.387 25.7827 179.29 25.7827C178.194 25.7827 177.205 25.9569 176.324 26.3054C175.444 26.6364 174.689 27.1155 174.059 27.7428C173.43 28.3526 172.945 29.1018 172.603 29.9904C172.262 30.8615 172.091 31.8372 172.091 32.9175Z" fill="#31B5E0"/>
<path d="M191.864 32.9175C191.864 32.3774 191.918 31.8459 192.026 31.3232C192.134 30.8006 192.313 30.3388 192.565 29.9381C192.835 29.5374 193.185 29.215 193.617 28.9711C194.048 28.7098 194.587 28.5791 195.234 28.5791C195.881 28.5791 196.421 28.7098 196.852 28.9711C197.301 29.215 197.652 29.5374 197.904 29.9381C198.173 30.3388 198.362 30.8006 198.47 31.3232C198.578 31.8459 198.632 32.3774 198.632 32.9175C198.632 33.4576 198.578 33.989 198.47 34.5117C198.362 35.017 198.173 35.4787 197.904 35.8968C197.652 36.2976 197.301 36.6199 196.852 36.8638C196.421 37.1078 195.881 37.2297 195.234 37.2297C194.587 37.2297 194.048 37.1078 193.617 36.8638C193.185 36.6199 192.835 36.2976 192.565 35.8968C192.313 35.4787 192.134 35.017 192.026 34.5117C191.918 33.989 191.864 33.4576 191.864 32.9175ZM188.035 32.9175C188.035 33.9977 188.206 34.9734 188.547 35.8446C188.889 36.7157 189.374 37.4649 190.003 38.0922C190.633 38.702 191.388 39.1724 192.268 39.5034C193.149 39.8345 194.138 40 195.234 40C196.331 40 197.319 39.8345 198.2 39.5034C199.099 39.1724 199.863 38.702 200.492 38.0922C201.121 37.4649 201.607 36.7157 201.948 35.8446C202.29 34.9734 202.46 33.9977 202.46 32.9175C202.46 31.8372 202.29 30.8615 201.948 29.9904C201.607 29.1018 201.121 28.3526 200.492 27.7428C199.863 27.1155 199.099 26.6364 198.2 26.3054C197.319 25.9569 196.331 25.7827 195.234 25.7827C194.138 25.7827 193.149 25.9569 192.268 26.3054C191.388 26.6364 190.633 27.1155 190.003 27.7428C189.374 28.3526 188.889 29.1018 188.547 29.9904C188.206 30.8615 188.035 31.8372 188.035 32.9175Z" fill="#31B5E0"/>
<path d="M214.306 32.8652C214.306 33.4227 214.252 33.9629 214.144 34.4856C214.036 35.0083 213.857 35.4787 213.605 35.8968C213.353 36.2976 213.012 36.6199 212.58 36.8638C212.167 37.1078 211.646 37.2297 211.017 37.2297C210.423 37.2297 209.911 37.1078 209.48 36.8638C209.066 36.6025 208.716 36.2714 208.428 35.8707C208.158 35.4525 207.961 34.9821 207.835 34.4594C207.709 33.9367 207.646 33.414 207.646 32.8913C207.646 32.3338 207.7 31.8024 207.808 31.2971C207.934 30.7744 208.123 30.3127 208.374 29.912C208.644 29.5112 208.994 29.1889 209.426 28.945C209.857 28.7011 210.387 28.5791 211.017 28.5791C211.646 28.5791 212.167 28.7011 212.58 28.945C212.994 29.1889 213.326 29.5112 213.578 29.912C213.848 30.2953 214.036 30.7483 214.144 31.271C214.252 31.7763 214.306 32.3077 214.306 32.8652ZM214.36 37.9354V39.6602H218V21H214.171V27.795H214.117C213.686 27.133 213.093 26.6364 212.338 26.3054C211.601 25.9569 210.819 25.7827 209.992 25.7827C208.967 25.7827 208.069 25.983 207.296 26.3838C206.523 26.7671 205.876 27.2811 205.354 27.9257C204.851 28.5704 204.465 29.3196 204.195 30.1733C203.943 31.0096 203.817 31.8808 203.817 32.7868C203.817 33.7276 203.943 34.6337 204.195 35.5048C204.465 36.376 204.851 37.1513 205.354 37.8308C205.876 38.4929 206.532 39.0243 207.323 39.425C208.114 39.8083 209.03 40 210.073 40C210.99 40 211.807 39.8432 212.526 39.5296C213.263 39.1985 213.857 38.6671 214.306 37.9354H214.36Z" fill="#31B5E0"/>
<path d="M13.8557 19.6219V40H18.9322V15L6 15V19.6219H13.8557Z" fill="white"/>
<path d="M22.4626 15V40H27.1444V29.6709H34.3965V25.3992H27.1444V19.6219H36V15H22.4626Z" fill="white"/>
</svg>
