<svg width="18" height="9" viewBox="0 0 18 9" fill="none" xmlns="http://www.w3.org/2000/svg">
<path fill-rule="evenodd" clip-rule="evenodd" d="M0.962199 0.0258026C0.597869 0.101079 0.267381 0.343273 0.102119 0.656111C0.0190126 0.813457 0.00439855 0.88089 0.00513805 1.10382C0.00675792 1.59756 -0.331266 1.2641 4.20486 5.24704C6.94067 7.64919 8.28964 8.81279 8.39887 8.86473C8.65393 8.98598 8.95516 9.02859 9.22015 8.98088C9.34121 8.95908 9.51271 8.90681 9.60124 8.86473C9.71047 8.81279 11.0594 7.64919 13.7953 5.24704C18.3318 1.26376 17.9936 1.59734 17.9947 1.10382C17.9951 0.880304 17.9803 0.812808 17.8949 0.648886C17.5993 0.0817507 16.8116 -0.158158 16.1662 0.122414C16.0745 0.162276 14.8002 1.25665 12.5127 3.26012L9.00006 6.33664L5.48741 3.26012C3.19096 1.24881 1.92598 0.162523 1.8339 0.122631C1.56585 0.00653588 1.23381 -0.0303304 0.962199 0.0258026Z" fill="#000000"/>
</svg>
